# xmcd
#
# Track frame offsets:
#	150
#	13920
#	26160
#	49527
#	63482
#	80225
#	104575
#	122105
#	133717
#	149070
#	164435
#	180100
#
# Disc length: 2602 seconds
#
# Revision: 0
# Processed by: cddbd v1.4b42PL0 Copyright (c) Steve Scherf et al.
# Submitted via: EZCDDA 4.3.3.2
#
DISCID=af0a280c
DTITLE=Hoyt Axton - All-Time Favorites [CD3]
DYEAR=1900
DGENRE=
TTITLE0=Somebody Turned On The Light
TTITLE1=Maybelline
TTITLE2=That's All Right
TTITLE3=Lay, Lady, Lay
TTITLE4=Geronimo's Cadillac
TTITLE5=The Weight
TTITLE6=If You're A Cowboy
TTITLE7=Rusty Old Halo
TTITLE8=Della and The Dealer
TTITLE9=Wild Bull Rider
TTITLE10=Evangelina
TTITLE11=Where Did The Money Go
EXTD=
EXTT0=
EXTT1=
EXTT2=
EXTT3=
EXTT4=
EXTT5=
EXTT6=
EXTT7=
EXTT8=
EXTT9=
EXTT10=
EXTT11=
PLAYORDER=
